<?xml version="1.0" encoding="utf-8"?>
<!-- Generator: Adobe Illustrator 17.0.0, SVG Export Plug-In . SVG Version: 6.00 Build 0)  -->
<!DOCTYPE svg PUBLIC "-//W3C//DTD SVG 1.1//EN" "http://www.w3.org/Graphics/SVG/1.1/DTD/svg11.dtd">
<svg version="1.1" id="Layer_1" xmlns="http://www.w3.org/2000/svg" xmlns:xlink="http://www.w3.org/1999/xlink" x="0px" y="0px"
	 width="155.44px" height="149.123px" viewBox="0 0 155.44 149.123" enable-background="new 0 0 155.44 149.123"
	 xml:space="preserve">
<g>
	<path fill="none" stroke="#8DC63F" stroke-miterlimit="10" d="M76.239,3.846"/>
	<path fill="none" stroke="#8DC63F" stroke-miterlimit="10" d="M99.609,73.541"/>
	<path fill="none" stroke="#8DC63F" stroke-miterlimit="10" d="M99.609,73.541"/>
	<path fill="none" stroke="#8DC63F" stroke-miterlimit="10" d="M53.285,73.541"/>
	<path fill="none" stroke="#8DC63F" stroke-miterlimit="10" d="M53.285,73.541"/>
	<path fill="none" stroke="#8DC63F" stroke-miterlimit="10" d="M76.239,142.819"/>
	<g>
		<path fill="#E91E25" d="M30.122,96.703c12.792,0,23.162-10.37,23.162-23.162c0,12.792,10.37,23.162,23.162,23.162
			s23.162-10.37,23.162-23.162c0,12.792,10.37,23.162,23.162,23.162s23.162-10.37,23.162-23.162
			c0-38.491-31.203-69.695-69.695-69.695S6.544,35.05,6.544,73.541H6.96C6.96,86.333,17.33,96.703,30.122,96.703z"/>
		<path fill="#DDF1F5" d="M76.239,143.236c27.256,0,50.841-15.655,62.297-38.455H13.941
			C25.398,127.581,48.983,143.236,76.239,143.236z"/>
		<path fill="#DDF1F5" d="M145.933,73.541c0,12.792-10.37,23.162-23.162,23.162s-23.162-10.37-23.162-23.162
			c0,12.792-10.37,23.162-23.162,23.162s-23.162-10.37-23.162-23.162c0,12.792-10.37,23.162-23.162,23.162
			c-12.792,0-23.162-10.37-23.162-23.162H6.544c0,11.236,2.675,21.841,7.397,31.24h124.595
			C143.259,95.382,145.933,84.776,145.933,73.541z"/>
	</g>
</g>
<rect x="26.494" y="32.14" fill="none" width="152.288" height="77.392"/>
<text transform="matrix(1 0 0 1 26.4943 43.0294)"><tspan x="0" y="0" fill="#FFFFFF" font-family="'Helvetica-Bold'" font-size="15.1456">PINECREST</tspan><tspan x="0" y="13.631" fill="#FFFFFF" font-family="'Helvetica-Bold'" font-size="15.1456">COMMUNITY</tspan><tspan x="0" y="27.262" fill="#FFFFFF" font-family="'Helvetica-Bold'" font-size="15.1456">POOL</tspan></text>
</svg>
